<svg xmlns="http://www.w3.org/2000/svg" xmlns:xlink="http://www.w3.org/1999/xlink" width="15.607" height="15.605" viewBox="0 0 15.607 15.605">
  <defs>
    <clipPath id="clip-path">
      <rect id="長方形_1300" data-name="長方形 1300" width="15.607" height="15.605" fill="none"/>
    </clipPath>
  </defs>
  <g id="グループ_21" data-name="グループ 21" clip-path="url(#clip-path)">
    <path id="パス_13302" data-name="パス 13302" d="M14.811,6.887C10.424,6.263,9.341,5.181,8.719.8A.908.908,0,0,0,7.805,0h0a.909.909,0,0,0-.917.795C6.266,5.181,5.183,6.263.8,6.887a.925.925,0,0,0,0,1.831c4.387.624,5.47,1.706,6.091,6.093A.909.909,0,0,0,7.8,15.6h0a.907.907,0,0,0,.913-.794c.622-4.388,1.706-5.47,6.093-6.092a.925.925,0,0,0,0-1.831m-7.5,5.229A5.225,5.225,0,0,0,3.491,8.3H7.309Zm0-4.808H3.49A5.225,5.225,0,0,0,7.309,3.49Zm.99,4.808V8.3h3.816A5.224,5.224,0,0,0,8.3,12.116m0-4.808V3.49a5.225,5.225,0,0,0,3.818,3.818Z" transform="translate(0 0)" fill="#fff"/>
  </g>
</svg>
