<svg xmlns="http://www.w3.org/2000/svg" xmlns:xlink="http://www.w3.org/1999/xlink" width="216.545" height="59.673" viewBox="0 0 216.545 59.673">
  <defs>
    <clipPath id="clip-path">
      <rect id="長方形_5" data-name="長方形 5" width="216.545" height="59.673" fill="none"/>
    </clipPath>
  </defs>
  <g id="ロゴ" transform="translate(-22 -10.24)">
    <g id="グループ_1" data-name="グループ 1" transform="translate(22 10.24)" clip-path="url(#clip-path)">
      <path id="パス_1" data-name="パス 1" d="M22.969,112.023c-2.92-.409-6.542-1.729-7.575-4.4a.065.065,0,0,0-.058-.046,8.9,8.9,0,0,1-6.377-2.186c1.932,2.65,5.148,5.826,10.416,9.827,4.014,3.049,14.4,8.414,15.447,8.95a82.05,82.05,0,0,1-11.852-12.145" transform="translate(-5.483 -64.495)" fill="#fff"/>
      <path id="パス_2" data-name="パス 2" d="M52.948,27.956a58.923,58.923,0,0,0-.043,10.524c.114,1.129.575,1.393,1.449,1.312,6.472-.66,7.386-1.842,8.011-8.821a.134.134,0,0,1,.267,0c.625,6.979,1.539,8.16,8.011,8.821.874.081,1.335-.184,1.449-1.312a58.885,58.885,0,0,0-.043-10.524A22.346,22.346,0,0,0,62.5,29.87a22.345,22.345,0,0,0-9.551-1.914" transform="translate(-32.244 -17.108)" fill="#fff"/>
      <path id="パス_3" data-name="パス 3" d="M1.884,49.348c3.285,1.846,6.366,3.6,9.431,5.721a14.243,14.243,0,0,1,2.794,2.469,4.017,4.017,0,0,1,.579,1.216,16.4,16.4,0,0,0,.86,1.976A10.585,10.585,0,0,0,18.2,64.15c.524-.105,1.155-.211,1.712-.293-1.352-1.28-3.217-3.871-3.4-6.4a3.281,3.281,0,0,0-1.175-2.384L2.436,44.632a.815.815,0,0,0-1.311.795c.251,1.236.608,2.868.759,3.921" transform="translate(-0.677 -27.2)" fill="#fff"/>
      <path id="パス_4" data-name="パス 4" d="M51.536,12.678a21.164,21.164,0,0,1,8.422,1.876,21.164,21.164,0,0,1,8.422-1.876l3-3.8a3.069,3.069,0,0,1-1.607.186,7.328,7.328,0,0,0-4.723.526c-3.622,1.675-5.092-2.5-5.092-3.246,0,.746-1.47,4.921-5.092,3.246a7.328,7.328,0,0,0-4.723-.526,3.068,3.068,0,0,1-1.607-.186Z" transform="translate(-29.702 -3.885)" fill="#fff"/>
      <path id="パス_5" data-name="パス 5" d="M44.42,9.272a1,1,0,1,0-.755-1.012,1,1,0,0,0,.755,1.012" transform="translate(-26.721 -4.465)" fill="#fff"/>
      <path id="パス_6" data-name="パス 6" d="M24.081,37.129A45.587,45.587,0,0,0,28.821,44.9c.585.776,1.648,1.873,2.759,3.05a31.9,31.9,0,0,1,4.288,5.219c1.833.08,4.5.08,6.331,0a31.875,31.875,0,0,1,4.288-5.219c1.111-1.177,2.174-2.274,2.759-3.05a45.637,45.637,0,0,0,4.739-7.766,2.683,2.683,0,0,1,3.065-.229l6.673-6.468a8.783,8.783,0,0,0-7.221.27,42.36,42.36,0,0,0,1.8-9.442,17.506,17.506,0,0,1-4.764,1.922c-.778,6.655-1.593,13.62-5.126,19.465a72.558,72.558,0,0,1-4.862,6.666,31.39,31.39,0,0,0,2.767-4.932,26.451,26.451,0,0,0,1.868-6.718c.125-.838.109-1.615-1.015-1.528-6.466.661-7.38,1.844-8,8.82a.134.134,0,0,1-.267,0c-.625-6.977-1.539-8.16-8.005-8.82-1.124-.086-1.139.691-1.014,1.528a26.482,26.482,0,0,0,1.868,6.718,31.39,31.39,0,0,0,2.767,4.932,72.552,72.552,0,0,1-4.862-6.666C26.12,36.8,25.305,29.839,24.526,23.183a17.509,17.509,0,0,1-4.764-1.922,42.39,42.39,0,0,0,1.8,9.442,8.782,8.782,0,0,0-7.22-.27L21.016,36.9a2.684,2.684,0,0,1,3.066.229" transform="translate(-8.778 -13.011)" fill="#fff"/>
      <path id="パス_7" data-name="パス 7" d="M10.231,73.624a.307.307,0,0,1-.116.6,12.294,12.294,0,0,0-6.555.948c.348,1.264,1.81,4.626,7.491,4.771a.2.2,0,0,1,.19.213c-.156,1.656,2.266,3.393,5.625,4.04,2.275.453,7.076.507,8.758,4.34a.376.376,0,0,0,.7-.229c-.055-.362-.132-.784-.238-1.26h0A30.359,30.359,0,0,0,24.5,81.723a55.8,55.8,0,0,1-6.364-.644c-1.456-.291-4.844-.737-4.857-3.041a2.065,2.065,0,0,1,.944-1.685,7.385,7.385,0,0,1,2.371-.9,13.245,13.245,0,0,1-3.523-5.121,3.6,3.6,0,0,0-.578-1.11,4.829,4.829,0,0,0-.773-.71C8.329,66.07,5.093,64.651.886,62.577-.881,67.1.222,71.624,2.2,73.693a13.351,13.351,0,0,1,8.029-.069" transform="translate(0 -38.295)" fill="#fff"/>
      <path id="パス_8" data-name="パス 8" d="M46.755,96.405c-.276-.318-.562-.639-.856-.961a33.037,33.037,0,0,0-6.936,1.042,5.2,5.2,0,0,0-1.6.677,1.123,1.123,0,0,0-.5.9c-.147,3.112,15.553,2.927,15.948,2.976.394-.049,16.094.136,15.947-2.976a1.123,1.123,0,0,0-.5-.9,5.207,5.207,0,0,0-1.6-.677,33.034,33.034,0,0,0-6.936-1.042c-.294.322-.58.643-.856.961,3.08.209,8.451.934,7.468,1.655a11.25,11.25,0,0,1-3.727.9,88.529,88.529,0,0,1-9.8.475,88.519,88.519,0,0,1-9.8-.475,11.248,11.248,0,0,1-3.727-.9c-.983-.721,4.388-1.447,7.468-1.655" transform="translate(-22.563 -58.408)" fill="#fff"/>
      <path id="パス_9" data-name="パス 9" d="M99.759,107.622c-1.033,2.671-4.655,3.991-7.575,4.4a82.074,82.074,0,0,1-11.852,12.145c1.043-.536,11.432-5.9,15.447-8.95,5.268-4,8.483-7.178,10.416-9.827a8.9,8.9,0,0,1-6.377,2.187.065.065,0,0,0-.058.046" transform="translate(-49.16 -64.495)" fill="#fff"/>
      <path id="パス_10" data-name="パス 10" d="M109.767,57.455c-.188,2.531-2.053,5.122-3.4,6.4.557.083,1.188.188,1.712.293a10.59,10.59,0,0,0,2.658-3.42,16.432,16.432,0,0,0,.86-1.976,4.007,4.007,0,0,1,.579-1.216,14.22,14.22,0,0,1,2.794-2.469c3.065-2.118,6.146-3.876,9.431-5.721.151-1.053.508-2.685.759-3.921a.815.815,0,0,0-1.311-.795l-12.9,10.439a3.282,3.282,0,0,0-1.174,2.384" transform="translate(-65.09 -27.2)" fill="#fff"/>
      <path id="パス_11" data-name="パス 11" d="M74.1,120.944a.19.19,0,0,0,0-.378c-2.918-.308-4.356-.771-5.146-2.216-1.032-1.929-.333-4.365.828-6.077-2.681.036-1.145.036-3.826,0,1.161,1.712,1.859,4.147.828,6.077-.79,1.445-2.228,1.909-5.146,2.216a.19.19,0,0,0,0,.378c4.66.492,5.55,1.38,6.042,6.037a.19.19,0,0,0,.379,0c.493-4.657,1.382-5.545,6.043-6.037" transform="translate(-37.618 -68.707)" fill="#fff"/>
      <path id="パス_12" data-name="パス 12" d="M108.358,9.272a1,1,0,1,0-1.249-.932,1,1,0,0,0,1.249.932" transform="translate(-65.547 -4.465)" fill="#fff"/>
      <path id="パス_13" data-name="パス 13" d="M113.536,62.577c-4.207,2.074-7.443,3.494-10.836,5.932a4.83,4.83,0,0,0-.773.711,3.594,3.594,0,0,0-.578,1.11,13.248,13.248,0,0,1-3.523,5.121,7.383,7.383,0,0,1,2.37.9,2.066,2.066,0,0,1,.944,1.685c-.013,2.3-3.4,2.75-4.857,3.041a55.707,55.707,0,0,1-6.364.644,30.361,30.361,0,0,0-1.581,5.325h0c-.107.476-.184.9-.238,1.26a.375.375,0,0,0,.7.229c1.681-3.833,6.483-3.886,8.758-4.339,3.36-.647,5.781-2.384,5.625-4.041a.2.2,0,0,1,.19-.213c5.681-.145,7.143-3.507,7.491-4.771a12.29,12.29,0,0,0-6.555-.948.307.307,0,0,1-.116-.6,13.351,13.351,0,0,1,8.029.07c1.979-2.07,3.083-6.6,1.315-11.117" transform="translate(-53.911 -38.295)" fill="#fff"/>
      <path id="パス_14" data-name="パス 14" d="M76.635,1.976a1,1,0,1,0-1.249-.932,1,1,0,0,0,1.249.932" transform="translate(-46.133 0)" fill="#fff"/>
      <path id="パス_15" data-name="パス 15" d="M188.729,123.353A4.523,4.523,0,1,1,193.25,128a4.427,4.427,0,0,1-4.521-4.65m6.912,0a2.4,2.4,0,1,0-2.39,2.6,2.387,2.387,0,0,0,2.39-2.6" transform="translate(-115.495 -72.642)" fill="#fff"/>
      <path id="パス_16" data-name="パス 16" d="M215.809,119.161h6.171v2.052h-4.067v1.4h3.313v1.915h-3.313v3.583h-2.1Z" transform="translate(-132.067 -72.922)" fill="#fff"/>
      <path id="パス_17" data-name="パス 17" d="M235.19,119.161h6.171v2.052h-4.067v1.4h3.313v1.915h-3.313v3.583h-2.1Z" transform="translate(-143.928 -72.922)" fill="#fff"/>
      <rect id="長方形_3" data-name="長方形 3" width="2.105" height="8.944" transform="translate(99.023 46.239)" fill="#fff"/>
      <path id="パス_18" data-name="パス 18" d="M265.224,123.353a4.427,4.427,0,0,1,4.521-4.65,4.355,4.355,0,0,1,4.417,3.57h-2.222a2.252,2.252,0,0,0-2.2-1.518,2.607,2.607,0,0,0,0,5.2,2.252,2.252,0,0,0,2.2-1.518h2.222a4.355,4.355,0,0,1-4.417,3.57,4.427,4.427,0,0,1-4.521-4.65" transform="translate(-162.307 -72.642)" fill="#fff"/>
      <rect id="長方形_4" data-name="長方形 4" width="2.105" height="8.944" transform="translate(113.639 46.239)" fill="#fff"/>
      <path id="パス_19" data-name="パス 19" d="M303.571,122.628c0-2.435,1.312-3.925,3.729-3.925s3.755,1.49,3.755,3.925v5.2h-2.1v-2.544h-3.326v2.544h-2.053Zm5.379.738v-.738c0-1.231-.507-1.874-1.663-1.874s-1.663.643-1.663,1.874v.738Z" transform="translate(-185.774 -72.642)" fill="#fff"/>
      <path id="パス_20" data-name="パス 20" d="M328.18,119.161h2.1v6.893H334.3v2.052H328.18Z" transform="translate(-200.834 -72.922)" fill="#fff"/>
      <path id="パス_21" data-name="パス 21" d="M354.061,123.353a4.427,4.427,0,0,1,4.521-4.65,4.355,4.355,0,0,1,4.417,3.57h-2.222a2.252,2.252,0,0,0-2.2-1.518,2.607,2.607,0,0,0,0,5.2,2.252,2.252,0,0,0,2.2-1.518H363a4.355,4.355,0,0,1-4.417,3.57,4.427,4.427,0,0,1-4.521-4.65" transform="translate(-216.672 -72.642)" fill="#fff"/>
      <path id="パス_22" data-name="パス 22" d="M380.98,122.628c0-2.435,1.312-3.925,3.729-3.925s3.755,1.49,3.755,3.925v5.2h-2.105v-2.544h-3.326v2.544H380.98Zm5.379.738v-.738c0-1.231-.507-1.874-1.663-1.874s-1.663.643-1.663,1.874v.738Z" transform="translate(-233.146 -72.642)" fill="#fff"/>
      <path id="パス_23" data-name="パス 23" d="M405.054,119.161H408.5c2.247,0,3.248,1.286,3.248,3.064a2.792,2.792,0,0,1-1.6,2.762l1.91,3.118h-2.494l-1.507-2.8h-.9v2.8h-2.1Zm3.469,4.089c.844,0,1.091-.438,1.091-1.026s-.247-1.012-1.091-1.012h-1.364v2.038Z" transform="translate(-247.878 -72.922)" fill="#fff"/>
      <path id="パス_24" data-name="パス 24" d="M426.717,119.161h3c2.988,0,4.547,1.792,4.547,4.472s-1.559,4.472-4.547,4.472h-3Zm3,6.893a2.421,2.421,0,0,0,0-4.841h-.9v4.841Z" transform="translate(-261.135 -72.922)" fill="#fff"/>
      <path id="パス_25" data-name="パス 25" d="M458.424,123.353a4.427,4.427,0,0,1,4.521-4.65,4.344,4.344,0,0,1,4.313,3.145h-2.313a2.226,2.226,0,0,0-2-1.094,2.607,2.607,0,0,0,0,5.2,2.218,2.218,0,0,0,2.209-1.326h-2.729v-1.778h5.028v.971a4.522,4.522,0,0,1-9.03-.465" transform="translate(-280.539 -72.642)" fill="#fff"/>
      <path id="パス_26" data-name="パス 26" d="M485.276,122.628c0-2.435,1.312-3.925,3.729-3.925s3.755,1.49,3.755,3.925v5.2h-2.1v-2.544h-3.326v2.544h-2.053Zm5.379.738v-.738c0-1.231-.507-1.874-1.663-1.874s-1.663.643-1.663,1.874v.738Z" transform="translate(-296.971 -72.642)" fill="#fff"/>
      <path id="パス_27" data-name="パス 27" d="M508.981,122.163c0-2.393,1.325-3.46,3.04-3.46a2.862,2.862,0,0,0,4.7,0c1.715,0,3.04,1.067,3.04,3.46v5.662h-2.1v-5.662c0-1.04-.481-1.409-1.117-1.409s-1.117.369-1.117,1.409v5.662h-2.1v-5.662c0-1.04-.493-1.409-1.117-1.409s-1.118.369-1.118,1.409v5.662h-2.1Z" transform="translate(-311.478 -72.642)" fill="#fff"/>
      <path id="パス_28" data-name="パス 28" d="M541.425,119.161H547.7v2.052H543.53v1.463h3.417v1.778H543.53v1.6H547.7v2.052h-6.275Z" transform="translate(-331.332 -72.922)" fill="#fff"/>
      <path id="パス_29" data-name="パス 29" d="M241.824,58.426h-6.2V27.4h6.2ZM275.851,27.4h-6.2V58.426h6.2Zm10.808,9.307h-6.2V58.426h6.2Zm0-6.205h-6.2v3.1h6.2Zm-55.644,12.41v9.307a6.2,6.2,0,0,1-6.2,6.2h-6.2a6.205,6.205,0,0,1-6.205-6.2V42.914a6.205,6.205,0,0,1,6.205-6.2h6.2a6.2,6.2,0,0,1,6.2,6.2m-6.2,0a3.1,3.1,0,1,0-6.2,0v9.307a3.1,3.1,0,1,0,6.2,0Zm40.231,0v9.307a6.2,6.2,0,0,1-6.2,6.2h-6.2a6.205,6.205,0,0,1-6.205-6.2V42.914a6.205,6.205,0,0,1,6.205-6.2h6.2a6.2,6.2,0,0,1,6.2,6.2m-6.2,0a3.1,3.1,0,1,0-6.2,0v9.307a3.1,3.1,0,1,0,6.2,0Zm61.071,6.2v3.1a3.1,3.1,0,0,0,3.1,3.1h3.1a3.1,3.1,0,0,0,3.1-3.1h3.1a6.2,6.2,0,0,1-6.2,6.2h-6.205a6.2,6.2,0,0,1-6.2-6.2V42.914a6.2,6.2,0,0,1,6.2-6.2h6.205a6.2,6.2,0,0,1,6.2,6.2v6.2h-12.41Zm0-3.1h6.205v-3.1a3.1,3.1,0,0,0-6.205,0Zm-16.236-9.307V52.222a3.1,3.1,0,0,1-3.1,3.1h-3.1V36.709h-6.205V58.426h7.806a10.808,10.808,0,0,0,10.808-10.808V36.709Zm-102.08,0h-3.1a3.1,3.1,0,0,0-3.1,3.1V27.4h-6.2V58.426h6.2V42.914a3.1,3.1,0,0,1,6.2,0V58.426H207.8V42.914a6.2,6.2,0,0,0-6.205-6.2m-6.2,6.2c0,.054,0,.107,0,.159,0-.053,0-.106,0-.159" transform="translate(-115.773 -16.769)" fill="#fff"/>
    </g>
  </g>
</svg>
