<?xml version="1.0" encoding="UTF-8"?><svg id="_レイヤー_1" xmlns="http://www.w3.org/2000/svg" viewBox="0 0 79.22 77.56"><defs><style>.cls-1{fill:#d4af37;stroke-width:0px;}</style></defs><path id="_パス_1-2" class="cls-1" d="M22.89,61.77c-3.82-.53-8.56-2.25-9.92-5.72-.01-.03-.04-.06-.08-.06-3.05.18-6.04-.84-8.35-2.84,2.53,3.44,6.74,7.57,13.64,12.78,5.26,3.96,18.86,10.94,20.23,11.63-5.31-4.09-10.69-10-15.52-15.79"/><path id="_パス_2-2" class="cls-1" d="M27.11,14.09c-.43,4.55-.45,9.13-.06,13.68.15,1.47.75,1.81,1.9,1.71,8.47-.86,9.67-2.4,10.49-11.47,0-.1.09-.17.19-.16.09,0,.15.08.16.16.82,9.07,2.01,10.61,10.49,11.47,1.14.1,1.75-.24,1.9-1.71.39-4.55.37-9.13-.06-13.68-4.3-.09-8.57.76-12.51,2.49-3.94-1.73-8.21-2.58-12.51-2.49"/><path id="_パス_3-2" class="cls-1" d="M1.59,28.78c4.3,2.4,8.33,4.68,12.35,7.44,1.35.91,2.58,1.98,3.66,3.21.34.48.6,1.01.76,1.58.32.88.69,1.74,1.12,2.57.84,1.71,2.02,3.22,3.48,4.45.69-.14,1.51-.27,2.24-.38-1.77-1.66-4.21-5.03-4.46-8.32-.05-1.2-.61-2.33-1.54-3.1L2.31,22.65c-.35-.29-.84-.32-1.22-.09-.39.23-.59.68-.49,1.12.33,1.61.8,3.73.99,5.1"/><path id="_パス_4-2" class="cls-1" d="M28.59,11.42c3.8.05,7.56.88,11.03,2.44,3.47-1.56,7.22-2.39,11.03-2.44l3.93-4.94c-.67.27-1.39.35-2.1.24-2.08-.46-4.25-.22-6.18.68-4.74,2.18-6.67-3.25-6.67-4.22,0,.97-1.92,6.4-6.67,4.22-1.93-.9-4.1-1.14-6.18-.68-.71.11-1.43.02-2.1-.24l3.92,4.94Z"/><path id="_パス_5-2" class="cls-1" d="M23.18,6.23c.7.17,1.4-.26,1.57-.95.17-.7-.26-1.4-.95-1.57-.7-.17-1.4.26-1.57.95-.02.08-.03.17-.04.26-.02.62.39,1.16.99,1.32"/><path id="_パス_6-2" class="cls-1" d="M20.04,31.34c1.73,3.57,3.8,6.95,6.21,10.1.77,1.01,2.16,2.44,3.61,3.97,2.11,2.06,3.99,4.33,5.62,6.78,2.4.1,5.89.1,8.29,0,1.63-2.45,3.51-4.73,5.61-6.78,1.45-1.53,2.85-2.96,3.61-3.97,2.4-3.15,4.48-6.53,6.21-10.1,1.14-.93,2.74-1.05,4.01-.3l8.74-8.41c-3.06-1.23-6.5-1.11-9.46.35,1.25-3.99,2.04-8.11,2.36-12.27-1.95,1.13-4.05,1.98-6.24,2.5-1.02,8.65-2.09,17.71-6.71,25.3-1.96,3.01-4.08,5.9-6.37,8.67,1.4-2.02,2.61-4.17,3.62-6.41,1.2-2.79,2.02-5.73,2.45-8.73.16-1.09.14-2.1-1.33-1.99-8.47.86-9.66,2.4-10.48,11.47-.01.1-.1.17-.19.16-.08,0-.15-.07-.16-.16-.82-9.07-2.01-10.61-10.48-11.47-1.47-.11-1.49.9-1.33,1.99.42,3.01,1.25,5.94,2.44,8.73,1.01,2.24,2.22,4.39,3.62,6.41-2.29-2.77-4.41-5.66-6.37-8.67-4.63-7.6-5.69-16.65-6.71-25.3-2.19-.52-4.29-1.37-6.24-2.5.32,4.17,1.11,8.29,2.36,12.27-2.96-1.46-6.4-1.59-9.45-.35l8.74,8.41c1.27-.75,2.87-.63,4.01.3"/><path id="_パス_7-2" class="cls-1" d="M13.4,45.92c.21.07.32.3.25.51-.06.17-.22.28-.4.27-2.92-.38-5.89.05-8.59,1.23.46,1.64,2.37,6.01,9.81,6.2.14,0,.25.12.25.26,0,0,0,0,0,.01-.2,2.15,2.97,4.41,7.37,5.25,2.98.59,9.27.66,11.47,5.64.13.24.44.32.67.18.17-.1.27-.29.24-.48-.07-.47-.17-1.02-.31-1.64h0c-.48-2.37-1.17-4.68-2.07-6.92-2.79-.12-5.57-.4-8.33-.84-1.91-.38-6.34-.96-6.36-3.95.02-.89.49-1.71,1.24-2.19.96-.57,2.01-.96,3.1-1.17-2.05-1.82-3.63-4.1-4.61-6.66-.17-.52-.42-1.01-.76-1.44-.3-.34-.64-.65-1.01-.92-4.44-3.17-8.68-5.02-14.19-7.71-2.31,5.88-.86,11.77,1.73,14.46,3.41-1.1,7.08-1.13,10.51-.09"/><path id="_パス_8-2" class="cls-1" d="M31.67,49.38c-.36-.41-.74-.83-1.12-1.25-3.07.13-6.11.59-9.08,1.36-.74.17-1.45.47-2.09.88-.39.26-.63.7-.65,1.17-.19,4.05,20.36,3.8,20.88,3.87.52-.06,21.07.18,20.88-3.87-.01-.47-.26-.91-.65-1.17-.64-.41-1.35-.7-2.09-.88-2.97-.77-6.02-1.22-9.08-1.35-.39.42-.76.84-1.12,1.25,4.03.27,11.07,1.21,9.78,2.15-1.55.67-3.2,1.06-4.88,1.18-4.26.44-8.55.65-12.84.62-4.29.03-8.57-.18-12.84-.62-1.68-.11-3.33-.51-4.88-1.18-1.29-.94,5.74-1.88,9.78-2.15"/><path id="_パス_9-2" class="cls-1" d="M66.25,56.05c-1.35,3.47-6.1,5.19-9.92,5.72-4.83,5.78-10.21,11.7-15.52,15.79,1.37-.7,14.97-7.67,20.23-11.64,6.9-5.2,11.11-9.33,13.64-12.78-2.31,2-5.3,3.02-8.35,2.84-.04,0-.07.03-.08.06"/><path id="_パス_10-2" class="cls-1" d="M58.5,39.32c-.25,3.29-2.69,6.66-4.46,8.32.73.11,1.56.25,2.24.38,1.45-1.23,2.64-2.74,3.48-4.45.43-.83.81-1.69,1.12-2.57.16-.57.42-1.1.76-1.58,1.07-1.23,2.3-2.31,3.66-3.21,4.01-2.75,8.05-5.04,12.35-7.44.2-1.37.66-3.49.99-5.1.1-.44-.1-.89-.49-1.12-.38-.24-.88-.2-1.22.08l-16.89,13.57c-.93.77-1.49,1.9-1.54,3.1"/><path id="_パス_11-2" class="cls-1" d="M47.78,67.89c.14-.02.23-.14.22-.27-.01-.11-.1-.21-.22-.22-3.82-.4-5.7-1-6.74-2.88-1.35-2.51-.44-5.68,1.08-7.9-3.51.05-1.5.05-5.01,0,1.52,2.22,2.43,5.39,1.08,7.9-1.04,1.88-2.92,2.48-6.74,2.88-.14.02-.23.14-.22.27.01.11.1.21.22.22,6.1.64,7.27,1.79,7.91,7.85,0,.14.11.25.25.25s.25-.11.25-.25c.64-6.05,1.81-7.21,7.91-7.85"/><path id="_パス_12-2" class="cls-1" d="M56.06,6.23c.69-.19,1.11-.9.92-1.59-.19-.69-.9-1.11-1.59-.92-.58.16-.98.7-.96,1.3.02.72.63,1.28,1.34,1.26.1,0,.2-.02.29-.04"/><path id="_パス_13-2" class="cls-1" d="M78.07,31.56c-5.51,2.7-9.75,4.54-14.19,7.71-.37.27-.71.58-1.01.92-.34.43-.59.92-.76,1.44-.99,2.55-2.57,4.84-4.61,6.66,1.09.21,2.14.61,3.1,1.17.75.48,1.21,1.3,1.24,2.19-.02,3-4.45,3.57-6.36,3.95-2.76.44-5.54.72-8.33.84-.9,2.24-1.59,4.56-2.07,6.92h0c-.14.62-.24,1.17-.31,1.64-.03.27.17.51.44.54.19.02.38-.07.48-.24,2.2-4.98,8.49-5.05,11.47-5.64,4.4-.84,7.57-3.1,7.36-5.25-.01-.14.09-.26.23-.28,0,0,0,0,.01,0,7.44-.19,9.35-4.56,9.81-6.2-2.7-1.18-5.66-1.61-8.58-1.23-.22.01-.41-.15-.43-.37-.01-.18.1-.35.27-.41,3.43-1.04,7.1-1.01,10.51.09,2.59-2.69,4.04-8.58,1.72-14.45"/><path id="_パス_14-2" class="cls-1" d="M39.94,2.56c.69-.19,1.11-.9.92-1.59s-.9-1.11-1.59-.92c-.58.16-.98.7-.96,1.3.03.72.63,1.28,1.35,1.25.09,0,.19-.02.28-.04"/></svg>