<?xml version="1.0" encoding="UTF-8"?><svg id="_レイヤー_1" xmlns="http://www.w3.org/2000/svg" viewBox="0 0 187.42 40.33"><defs><style>.cls-1{fill:#d4af37;stroke-width:0px;}</style></defs><path id="_パス_29-2" class="cls-1" d="M68.93,40.33h-8.12V0h8.12v40.33ZM113.48,0h-8.12v40.33h8.12V0ZM127.63,12.1h-8.12v28.23h8.12V12.1ZM127.63,4.03h-8.12v4.03h8.12v-4.03ZM54.77,20.17v12.1c-.02,4.47-3.65,8.08-8.12,8.07h-8.12c-4.47.01-8.11-3.6-8.12-8.07v-12.1c.02-4.47,3.65-8.08,8.12-8.07h8.12c4.47-.01,8.11,3.6,8.12,8.07M46.65,20.17c0-2.24-1.82-4.06-4.07-4.06-2.24,0-4.05,1.82-4.06,4.06v12.1c0,2.24,1.82,4.06,4.07,4.06,2.24,0,4.05-1.82,4.06-4.06v-12.1ZM99.33,20.17v12.1c-.02,4.47-3.65,8.08-8.12,8.07h-8.12c-4.47.01-8.11-3.6-8.12-8.07v-12.1c.02-4.47,3.65-8.08,8.12-8.07h8.12c4.47-.01,8.11,3.6,8.12,8.07M91.2,20.17c0-2.24-1.82-4.06-4.07-4.06-2.24,0-4.05,1.82-4.06,4.06v12.1c0,2.24,1.82,4.06,4.07,4.06,2.24,0,4.05-1.82,4.06-4.06v-12.1ZM171.17,28.23v4.03c0,2.24,1.83,4.04,4.06,4.03h4.06c2.24,0,4.05-1.8,4.06-4.03h4.06c-.02,4.47-3.65,8.08-8.12,8.07h-8.12c-4.47.01-8.11-3.6-8.12-8.07v-12.1c.02-4.47,3.65-8.08,8.12-8.07h8.12c4.47-.01,8.11,3.6,8.12,8.07v8.07h-16.25,0ZM171.17,24.2h8.12v-4.03c0-2.24-1.82-4.06-4.06-4.06s-4.06,1.82-4.06,4.06v4.03ZM149.91,12.1v20.17c0,2.24-1.83,4.04-4.06,4.03h-4.06V12.1h-8.12v28.23h10.22c7.79.03,14.12-6.26,14.15-14.05h0v-14.19h-8.12ZM16.25,12.1h-4.06c-2.24,0-4.05,1.8-4.06,4.03V0H0v40.33h8.12v-20.17c0-2.24,1.82-4.06,4.07-4.06,2.24,0,4.05,1.82,4.06,4.06v20.17h8.12v-20.17c-.02-4.47-3.65-8.08-8.12-8.07M8.12,20.17c0,.07,0,.14,0,.21,0-.07,0-.14,0-.21"/></svg>