<?xml version="1.0" encoding="UTF-8"?><svg id="_レイヤー_1" xmlns="http://www.w3.org/2000/svg" viewBox="0 0 187.43 12.1"><defs><style>.cls-1{fill:#d4af37;stroke-width:0px;}</style></defs><path id="_パス_15-2" class="cls-1" d="M0,6.05C.07,2.78,2.78.19,6.05.26c3.27.07,5.86,2.77,5.8,6.04-.07,3.22-2.7,5.8-5.92,5.8C2.74,12.18.09,9.67,0,6.48c0-.14,0-.28,0-.43M9.06,6.05c-.13-1.73-1.64-3.02-3.37-2.89-1.73.13-3.02,1.64-2.89,3.37.12,1.64,1.49,2.9,3.13,2.9,1.72.02,3.13-1.36,3.14-3.08,0-.1,0-.2-.01-.3"/><path id="_パス_16-2" class="cls-1" d="M13.77.23h8.08v2.67h-5.32v1.81h4.33v2.49h-4.34v4.66h-2.76V.23Z"/><path id="_パス_17-2" class="cls-1" d="M23.62.23h8.08v2.67h-5.32v1.81h4.34v2.49h-4.34v4.66h-2.76V.23Z"/><rect id="_長方形_3-2" class="cls-1" x="33.78" y=".23" width="2.76" height="11.63"/><path id="_パス_18-2" class="cls-1" d="M38.87,6.05c-.15-3.19,2.31-5.89,5.5-6.04.14,0,.28,0,.42,0,2.81-.09,5.27,1.88,5.78,4.64h-2.91c-.43-1.21-1.59-2.01-2.88-1.97-1.87.14-3.26,1.77-3.12,3.64.13,1.67,1.45,2.99,3.12,3.12,1.29.04,2.45-.76,2.88-1.97h2.91c-.52,2.76-2.97,4.73-5.78,4.64-3.19.08-5.84-2.43-5.92-5.62,0-.14,0-.28,0-.42"/><rect id="_長方形_4-2" class="cls-1" x="52.92" y=".23" width="2.76" height="11.63"/><path id="_パス_19-2" class="cls-1" d="M58.36,5.11C58.36,1.94,60.08,0,63.24,0s4.92,1.94,4.92,5.1v6.76h-2.76v-3.31h-4.36v3.31h-2.69v-6.76ZM65.4,6.07v-.96c0-1.6-.66-2.44-2.18-2.44s-2.18.84-2.18,2.44v.96h4.36Z"/><path id="_パス_20-2" class="cls-1" d="M70.86.23h2.76v8.96h5.26v2.67h-8.01V.23Z"/><path id="_パス_21-2" class="cls-1" d="M84.01,6.05c-.15-3.19,2.31-5.89,5.5-6.04.14,0,.28,0,.42,0,2.81-.09,5.27,1.88,5.78,4.64h-2.91c-.42-1.21-1.59-2.01-2.88-1.97-1.87.14-3.26,1.77-3.12,3.64.13,1.67,1.45,2.99,3.12,3.12,1.29.04,2.45-.76,2.88-1.97h2.91c-.52,2.76-2.97,4.73-5.78,4.64-3.19.08-5.84-2.43-5.92-5.62,0-.14,0-.28,0-.42"/><path id="_パス_22-2" class="cls-1" d="M97.69,5.11C97.69,1.94,99.41,0,102.57,0s4.92,1.94,4.92,5.1v6.76h-2.76v-3.31h-4.36v3.31h-2.69v-6.76ZM104.73,6.07v-.96c0-1.6-.66-2.44-2.18-2.44s-2.18.84-2.18,2.44v.96h4.36Z"/><path id="_パス_23-2" class="cls-1" d="M109.92.23h4.51c2.94,0,4.25,1.67,4.25,3.98.13,1.52-.71,2.95-2.09,3.59l2.5,4.05h-3.27l-1.97-3.64h-1.17v3.64h-2.76V.23ZM114.46,5.55c1.11,0,1.43-.57,1.43-1.33s-.32-1.32-1.43-1.32h-1.79v2.65h1.79Z"/><path id="_パス_24-2" class="cls-1" d="M120.92.23h3.93c3.91,0,5.95,2.33,5.95,5.81s-2.04,5.81-5.95,5.81h-3.93V.23ZM124.85,9.2c2.23,0,3.16-1.21,3.16-3.15s-.94-3.15-3.16-3.15h-1.17v6.29h1.17Z"/><path id="_パス_25-2" class="cls-1" d="M137.04,6.05c-.15-3.19,2.31-5.89,5.5-6.04.14,0,.28,0,.42,0,2.6-.09,4.92,1.6,5.65,4.09h-3.03c-.55-.92-1.55-1.46-2.62-1.42-1.87.14-3.26,1.77-3.12,3.64.13,1.67,1.45,2.99,3.12,3.12,1.23.1,2.39-.59,2.89-1.72h-3.57v-2.31h6.58v1.26c-.27,3.26-3.13,5.69-6.39,5.42-3.12-.26-5.5-2.89-5.44-6.02"/><path id="_パス_26-2" class="cls-1" d="M150.68,5.11c0-3.17,1.72-5.1,4.88-5.1s4.92,1.94,4.92,5.1v6.76h-2.76v-3.31h-4.36v3.31h-2.69v-6.76ZM157.73,6.07v-.96c0-1.6-.66-2.44-2.18-2.44s-2.18.84-2.18,2.44v.96h4.36Z"/><path id="_パス_27-2" class="cls-1" d="M162.73,4.5C162.73,1.39,164.46,0,166.71,0c1.24-.06,2.41.55,3.08,1.6.66-1.05,1.84-1.66,3.08-1.6,2.25,0,3.98,1.39,3.98,4.5v7.36h-2.76v-7.36c0-1.35-.63-1.83-1.46-1.83s-1.46.48-1.46,1.83v7.36h-2.76v-7.36c0-1.35-.65-1.83-1.46-1.83s-1.46.48-1.46,1.83v7.36h-2.76v-7.36Z"/><path id="_パス_28-2" class="cls-1" d="M179.21.23h8.22v2.67h-5.46v1.9h4.47v2.31h-4.47v2.08h5.46v2.67h-8.22V.23Z"/></svg>