<svg xmlns="http://www.w3.org/2000/svg" width="72" height="72" viewBox="0 0 72 72">
  <g id="NEW" transform="translate(1.529 -2.053)">
    <circle id="楕円形_11" data-name="楕円形 11" cx="36" cy="36" r="36" transform="translate(-1.529 2.053)" fill="#debc3d"/>
    <path id="パス_13302" data-name="パス 13302" d="M14.992,18V5.454h2.394l5.85,9.5H22.66v-9.5h2.322V18H22.57L16.738,8.478h.576V18Zm12.4,0V5.454h8.352V7.542h-6.03V10.53H35.35V12.6H29.716v3.312h6.03V18Zm13.212,0L36.826,5.454h2.448l2.592,8.982L44.26,6.174h2.3l2.376,8.262,2.61-8.982h2.43L50.2,18H47.95L45.214,8.964h.378L42.874,18Z" transform="translate(0.471 27.053)" fill="#0f0a05"/>
  </g>
</svg>
